<svg height="512pt" viewBox="0 0 512 512" width="512pt" xmlns="http://www.w3.org/2000/svg"><path d="m512 256c0 68.378906-26.628906 132.660156-74.980469 181.019531-48.339843 48.339844-112.621093 74.96875-180.988281 74.980469h-.03125c-68.378906 0-132.671875-26.628906-181.019531-74.980469-48.351563-48.359375-74.980469-112.640625-74.980469-181.019531s26.628906-132.671875 74.980469-181.019531c48.347656-48.351563 112.640625-74.980469 181.019531-74.980469h.03125c68.367188.0117188 132.648438 26.640625 180.988281 74.980469 48.351563 48.347656 74.980469 112.640625 74.980469 181.019531zm0 0" fill="#0cf"/><path d="m512 256c0 68.378906-26.628906 132.660156-74.980469 181.019531-48.339843 48.339844-112.621093 74.96875-180.988281 74.980469v-512c68.367188.0117188 132.648438 26.640625 180.988281 74.980469 48.351563 48.347656 74.980469 112.640625 74.980469 181.019531zm0 0" fill="#00a8e8"/><path d="m356.726562 217.257812c-47.777343 26.652344-39.640624 104.449219 12.183594 104.449219 22.351563 0 41.695313-16.34375 50.308594-37.238281 19.890625-48.257812-21.472656-90.101562-62.492188-67.210938zm0 0" fill="#d7f3ff"/><path d="m307.65625 226.894531c57.324219 0 74.488281-94.683593 20.027344-110.25-24.8125-7.089843-53.027344 9.921875-62.089844 41.019531-10.167969 34.855469 9.835938 69.230469 42.0625 69.230469zm0 0" fill="#d7f3ff"/><g fill="#fff"><path d="m292.910156 395.429688c-7.960937-2.140626-22.089844-3.519532-36.878906-3.71875-15.632812-.222657-32 .867187-42.589844 3.71875-28.601562 7.75-67.519531-11-58.980468-49.941407 7.898437-36 36.277343-33.949219 42.988281-68.066406 6.761719-34.480469 33.039062-51.121094 58.582031-49.820313 23.640625 1.207032 46.648438 17.789063 52.917969 49.828126 6.671875 34.140624 34.992187 32.070312 42.878906 68.058593 8.570313 38.972657-30.429687 57.621094-58.917969 49.941407zm0 0"/><path d="m206.769531 226.894531c16.214844 0 30.140625-9.160156 37.878907-23.179687 23.003906-41.6875-14.777344-99.398438-57.910157-87.039063-54.554687 15.609375-37.261719 110.21875 20.03125 110.21875zm0 0"/><path d="m180.855469 290.707031c18.40625-43.804687-25.222657-97.3125-66.890625-80.476562-50.191406 20.277343-28.054688 107.734375 27.132812 107.734375 17.710938 0 32.761719-10.605469 39.757813-27.257813zm0 0"/></g><path d="m292.910156 395.429688c-7.960937-2.140626-22.089844-3.519532-36.878906-3.71875v-164.109376c23.640625 1.207032 46.648438 17.789063 52.917969 49.828126 6.671875 34.140624 34.992187 32.070312 42.878906 68.058593 8.570313 38.972657-30.429687 57.621094-58.917969 49.941407zm0 0" fill="#d7f3ff"/></svg>